<?xml version="1.0" encoding="UTF-8" standalone="no"?>
<!-- Generator: Adobe Illustrator 21.1.0, SVG Export Plug-In . SVG Version: 6.00 Build 0)  -->

<svg
   version="1.1"
   id="Layer_1"
   x="0px"
   y="0px"
   viewBox="0 0 100.353 100.352"
   style="enable-background:new 0 0 100.353 100.352;"
   xml:space="preserve"
   sodipodi:docname="phone.svg"
   inkscape:version="1.1.2 (b8e25be833, 2022-02-05)"
   xmlns:inkscape="http://www.inkscape.org/namespaces/inkscape"
   xmlns:sodipodi="http://sodipodi.sourceforge.net/DTD/sodipodi-0.dtd"
   xmlns="http://www.w3.org/2000/svg"
   xmlns:svg="http://www.w3.org/2000/svg"><defs
   id="defs13" /><sodipodi:namedview
   id="namedview11"
   pagecolor="#ffffff"
   bordercolor="#666666"
   borderopacity="1.0"
   inkscape:pageshadow="2"
   inkscape:pageopacity="0.0"
   inkscape:pagecheckerboard="0"
   showgrid="false"
   inkscape:zoom="8.2808516"
   inkscape:cx="50.236379"
   inkscape:cy="40.515157"
   inkscape:window-width="1286"
   inkscape:window-height="1040"
   inkscape:window-x="552"
   inkscape:window-y="7"
   inkscape:window-maximized="0"
   inkscape:current-layer="Layer_1" />
<path
   d="M39.514,85.637c3.975,2.226,7.89,3.344,11.537,3.344c3.053-0.001,5.918-0.785,8.468-2.359l9.399-5.798  c0.339-0.209,0.581-0.543,0.673-0.931c0.092-0.387,0.025-0.795-0.184-1.134L61.26,65.555c-0.209-0.338-0.544-0.58-0.931-0.672  c-0.39-0.091-0.796-0.025-1.134,0.184l-9.47,5.845c-1.456,0.898-3.324,1.185-5.121,0.79c-1.797-0.396-3.331-1.438-4.209-2.862  L27.524,47.981c-1.861-3.016-0.923-6.984,2.091-8.845c0,0,0.001,0,0.001-0.001l9.829-6.068c0.705-0.435,0.923-1.359,0.488-2.064  l-8.148-13.201c-0.435-0.705-1.36-0.926-2.064-0.489L19.9,23.375C8.954,30.131,9.338,47.866,20.836,66.504  C26.107,75.05,32.741,81.845,39.514,85.637z M21.477,25.927l8.544-5.273l6.573,10.648l-8.553,5.28  c-0.002,0.001-0.003,0.002-0.004,0.003c-4.418,2.731-5.794,8.548-3.065,12.97l12.871,20.858c1.301,2.111,3.531,3.648,6.117,4.218  c2.551,0.559,5.228,0.136,7.341-1.168l8.193-5.057l6.572,10.65l-8.123,5.011c-5.932,3.66-12.499,1.45-16.963-1.049  c-6.335-3.548-12.583-9.972-17.591-18.09C12.819,47.794,12.033,31.756,21.477,25.927z"
   id="path2" />
<path
   d="M49.58,33.552c4.854,0.287,9.15,2.781,11.788,6.844c2.522,3.872,3.129,8.617,1.664,13.019  c-0.262,0.786,0.163,1.636,0.949,1.896c0.157,0.053,0.316,0.077,0.474,0.077c0.629,0,1.214-0.397,1.423-1.026  c1.756-5.274,1.028-10.962-1.995-15.602c-3.114-4.798-8.396-7.865-14.126-8.204c-0.835-0.035-1.537,0.582-1.586,1.409  C48.122,32.793,48.753,33.503,49.58,33.552z"
   id="path4" />
<path
   d="M51.68,22.418c7.86,0.903,14.837,5.216,19.142,11.831c4.171,6.413,5.353,14.309,3.242,21.664  c-0.229,0.797,0.231,1.627,1.027,1.855c0.139,0.04,0.277,0.059,0.415,0.059c0.651,0,1.252-0.429,1.44-1.086  c2.351-8.191,1.035-16.986-3.61-24.128c-4.794-7.367-12.562-12.169-21.314-13.175c-0.807-0.095-1.566,0.496-1.661,1.319  S50.856,22.323,51.68,22.418z"
   id="path6" />
<path
   d="M53.731,12.612C64.17,14.063,73.452,19.963,79.198,28.8c5.629,8.647,7.317,19.327,4.633,29.301  c-0.216,0.8,0.259,1.623,1.059,1.838c0.13,0.035,0.262,0.052,0.391,0.052c0.661,0,1.268-0.44,1.447-1.11  c2.906-10.796,1.078-22.357-5.015-31.717c-6.22-9.565-16.268-15.952-27.567-17.523c-0.817-0.109-1.579,0.458-1.692,1.279  C52.339,11.74,52.911,12.498,53.731,12.612z"
   id="path8" />
<path
   style="fill:#ffffff;stroke:#000000;stroke-width:0.120761"
   d="M 49.028774,88.813371 C 46.398525,88.486035 43.678125,87.631539 40.94201,86.273262 34.243285,82.947843 27.489199,76.508399 22.073696,68.283933 17.518349,61.365779 14.14533,53.671344 12.81225,47.156986 10.911492,37.86856 12.488789,30.22439 17.273253,25.537304 c 1.18687,-1.162714 1.6869,-1.500797 7.736843,-5.231081 4.441706,-2.738675 5.082044,-3.097848 5.522889,-3.097848 0.376103,0 0.58725,0.08162 0.859115,0.332091 0.582582,0.53674 8.597037,13.626994 8.659935,14.144537 0.101526,0.835395 -0.05251,0.955305 -5.690247,4.429603 -5.830916,3.593346 -6.377035,4.015969 -7.127931,5.516066 -0.547878,1.094522 -0.707694,1.948842 -0.638207,3.411646 0.04373,0.920494 0.129323,1.38185 0.358738,1.933527 0.16572,0.398509 3.30005,5.588193 6.965179,11.53263 7.422595,12.038637 7.243589,11.788887 9.089223,12.681414 1.679691,0.812279 3.889469,0.946209 5.546083,0.336132 0.46688,-0.171935 2.872467,-1.575998 5.838029,-3.407467 5.375559,-3.319832 5.601269,-3.427101 6.294552,-2.991511 0.263552,0.165591 1.356496,1.833374 3.862116,5.893419 4.927245,7.983985 5.008493,8.122344 5.008493,8.529082 0,0.424391 -0.29041,0.953903 -0.64806,1.181628 -2.570029,1.636406 -10.028965,6.177212 -10.703429,6.515969 -2.074735,1.042062 -4.186303,1.55701 -6.691112,1.631763 -0.869541,0.02595 -1.988551,-0.0035 -2.486688,-0.06553 z m 4.022346,-2.900396 c 1.198708,-0.177919 2.753173,-0.659473 3.763712,-1.165954 0.466575,-0.233847 2.758182,-1.600509 5.092458,-3.037027 4.001529,-2.462547 4.236234,-2.626343 4.105858,-2.86539 -0.07605,-0.139448 -1.551179,-2.545706 -3.278055,-5.347242 -2.346919,-3.807442 -3.189291,-5.08141 -3.335868,-5.045022 -0.107852,0.02677 -2.118515,1.235142 -4.468139,2.685264 -4.551205,2.808873 -5.513447,3.280153 -7.266183,3.558775 -1.109648,0.176394 -2.814297,0.09352 -3.949592,-0.192014 C 41.83978,74.032656 39.774047,72.73296 38.581273,71.274186 37.983695,70.54334 25.147025,49.784376 24.552238,48.586973 c -0.650437,-1.309435 -0.919796,-2.682774 -0.848917,-4.32824 0.0329,-0.76381 0.149334,-1.7148 0.258741,-2.113309 0.479412,-1.746247 1.782951,-3.735123 3.146734,-4.801136 0.360492,-0.28178 2.643105,-1.735028 5.072475,-3.229439 3.303316,-2.032015 4.404651,-2.766649 4.367915,-2.913576 -0.05268,-0.210688 -6.180652,-10.205558 -6.415942,-10.464552 -0.11193,-0.123206 -1.064433,0.416007 -4.660986,2.638591 -2.486169,1.536392 -4.773403,2.979153 -5.082744,3.206135 -0.864323,0.634205 -2.43368,2.355376 -3.051624,3.346826 -1.526039,2.448431 -2.314624,5.337367 -2.447589,8.966609 -0.146771,4.006074 0.520401,8.031348 2.128674,12.843009 2.360001,7.060695 6.652835,14.651772 11.818925,20.899566 1.505422,1.820636 5.29083,5.582011 6.967596,6.923361 4.383858,3.506921 9.023234,5.764569 13.042137,6.346661 1.049294,0.151978 3.197648,0.154786 4.203487,0.0055 z"
   id="path1015" /><path
   style="fill:#ffffff;stroke:#000000;stroke-width:0.120761"
   d="m 64.003141,55.234383 c -0.94889,-0.382619 -1.10651,-0.986115 -0.681183,-2.608123 1.386557,-5.287715 0.04565,-10.578244 -3.663581,-14.4546 -1.789217,-1.869834 -3.823991,-3.1722 -6.137126,-3.928098 -0.934011,-0.30522 -1.621139,-0.440416 -4.120668,-0.810761 -0.482931,-0.07155 -1.03775,-0.607703 -1.130398,-1.09236 -0.100353,-0.524962 0.169696,-1.14444 0.637828,-1.463145 0.385223,-0.262261 0.502889,-0.280854 1.328366,-0.209896 6.143367,0.528084 11.788024,4.339328 14.536592,9.815033 1.556416,3.100698 2.196349,6.33385 1.89866,9.592662 -0.146766,1.606635 -0.71486,4.143937 -1.027875,4.590828 -0.372521,0.531847 -1.103384,0.785085 -1.640615,0.56846 z"
   id="path1054" /><path
   style="fill:#ffffff;stroke:#000000;stroke-width:0.120761"
   d="m 74.879814,57.578359 c -0.23311,-0.122136 -0.51568,-0.415313 -0.64596,-0.670206 -0.231522,-0.452976 -0.231502,-0.453429 0.07778,-1.690647 0.633419,-2.533878 0.734874,-3.447183 0.734428,-6.611394 -3.62e-4,-2.525123 -0.03928,-3.170964 -0.265631,-4.407759 -0.809451,-4.422826 -2.518376,-8.308818 -5.204414,-11.834532 -0.818618,-1.074525 -3.193821,-3.471077 -4.365331,-4.404569 -3.570179,-2.84482 -7.772678,-4.688144 -12.419565,-5.447538 -0.819906,-0.133989 -1.601028,-0.308794 -1.735826,-0.388457 -0.694849,-0.41064 -0.783723,-1.684976 -0.155321,-2.227098 0.450699,-0.388819 0.811642,-0.444345 1.893702,-0.291322 6.970541,0.985763 13.477553,4.53346 18.046926,9.839387 2.975346,3.454953 5.267201,7.873362 6.306313,12.157777 0.672116,2.771241 0.800414,3.894757 0.799821,7.004111 -6.04e-4,3.104724 -0.138947,4.35373 -0.767854,6.93189 -0.281608,1.154424 -0.416503,1.49764 -0.700081,1.781217 -0.451012,0.451013 -1.048091,0.547779 -1.598985,0.25914 z"
   id="path1093" /><path
   style="fill:#ffffff;stroke:#000000;stroke-width:0.120761"
   d="M 84.661417,59.751008 C 84.429552,59.630106 84.146441,59.338072 84.018636,59.08797 l -0.228405,-0.446971 0.365465,-1.605958 C 86.099969,48.49133 85.08736,39.911017 81.226205,32.212093 79.387856,28.546531 77.157312,25.523457 74.073111,22.517452 68.75758,17.336691 62.322082,14.054933 54.886792,12.733461 c -0.796397,-0.141543 -1.530625,-0.301574 -1.631618,-0.355624 -0.927668,-0.496473 -0.92993,-1.994475 -0.0037,-2.4734297 0.471476,-0.2438095 0.94822,-0.2311975 2.503604,0.066232 9.935474,1.8999157 18.456417,7.1799007 24.420141,15.1318877 6.216167,8.288593 8.921777,18.919318 7.426387,29.17933 -0.234158,1.606583 -0.834344,4.370325 -1.040248,4.790151 -0.355023,0.723864 -1.220603,1.033211 -1.899906,0.679 z"
   id="path1132" /><path
   style="fill:#ffffff;stroke:#000000;stroke-width:0.120761"
   d="M 49.089154,88.689365 C 46.327715,88.389547 42.770916,87.166422 39.744878,85.476024 36.402973,83.609174 33.5397,81.375285 30.185682,78.018061 26.139312,73.967825 22.924362,69.731479 19.830738,64.373332 18.718516,62.446967 16.695453,58.355509 15.885853,56.395166 11.622328,46.071586 10.996999,36.82808 14.120398,30.298541 c 0.853336,-1.783918 1.700258,-3.011822 3.02142,-4.380585 1.250192,-1.295236 2.38989,-2.083522 7.955403,-5.50245 5.462556,-3.355683 5.549389,-3.393958 6.195616,-2.730959 0.615358,0.631328 8.02761,12.635686 8.484589,13.741036 0.369294,0.89326 0.14045,1.085365 -5.360676,4.500108 -5.747277,3.567538 -6.548177,4.179188 -7.227426,5.519624 -0.576798,1.138254 -0.714036,1.868943 -0.662384,3.526696 l 0.04745,1.523121 0.570983,1.056027 c 1.080638,1.998626 10.422395,17.215397 12.491643,20.347617 0.625689,0.947104 1.405133,1.996657 1.7321,2.332341 0.64141,0.658511 1.835062,1.283057 3.010372,1.575092 0.903759,0.224561 3.152594,0.197167 3.903607,-0.04755 0.653744,-0.213024 2.581863,-1.323241 7.025221,-4.04514 1.660457,-1.017159 3.418303,-2.04805 3.906324,-2.29087 0.828346,-0.412154 0.908596,-0.429854 1.207605,-0.266347 0.471353,0.257748 2.825393,3.904553 7.466958,11.567575 1.593237,2.630365 1.71042,2.964279 1.247014,3.553403 -0.364105,0.462886 -10.05247,6.422126 -11.563764,7.112784 -2.371989,1.083995 -5.729732,1.598267 -8.483304,1.299304 z m 3.803957,-2.645214 c 1.143139,-0.150142 2.837485,-0.6538 3.864336,-1.148703 0.900241,-0.433881 6.556741,-3.847228 8.272096,-4.991695 0.840115,-0.560516 1.025408,-0.739657 1.020644,-0.986749 -0.0086,-0.444365 -5.937862,-10.02698 -6.485441,-10.481429 -0.152324,-0.126417 -0.645407,0.129757 -3.004272,1.560827 -4.845266,2.939513 -5.206173,3.148577 -6.444856,3.733348 -1.858615,0.877435 -3.249002,1.105374 -5.177302,0.848765 -2.758142,-0.367039 -5.283154,-1.919392 -6.750113,-4.149899 -0.888739,-1.351327 -5.309891,-8.448771 -8.779353,-14.09383 -5.632895,-9.165117 -5.43159,-8.753661 -5.524154,-11.29111 -0.04199,-1.150972 -0.0069,-1.807238 0.131676,-2.459364 0.383571,-1.805718 1.755253,-4.004645 3.180602,-5.098789 0.409124,-0.314058 2.445482,-1.63109 4.52524,-2.926739 4.069841,-2.535433 4.782331,-3.014423 4.886086,-3.284805 0.06712,-0.174906 -0.820353,-1.682806 -4.463487,-7.583912 -1.787635,-2.895591 -1.946203,-3.113554 -2.215871,-3.045871 -0.455197,0.114247 -6.941142,4.043721 -9.283928,5.624617 -0.932295,0.629106 -2.306841,2.030259 -3.147731,3.20866 -1.086936,1.523204 -1.951488,3.745824 -2.426905,6.239171 -0.170154,0.892381 -0.21217,1.754981 -0.210198,4.31547 0.0021,2.782091 0.0387,3.410783 0.279815,4.812451 1.398671,8.130747 5.556839,17.229449 11.527262,25.223397 1.521812,2.037592 2.263178,2.924341 3.967049,4.744999 1.596813,1.706263 4.554188,4.46415 5.774993,5.385441 5.945327,4.4867 11.590029,6.488512 16.483812,5.845749 z"
   id="path1492" /><path
   style="fill:#ffffff;stroke:#000000;stroke-width:0.120761"
   d="m 63.571128,54.774188 c -0.43992,-0.439919 -0.443409,-0.665812 -0.03871,-2.505409 0.381032,-1.732011 0.508951,-4.182678 0.300112,-5.749504 -0.601628,-4.513728 -3.368492,-8.666887 -7.380265,-11.078033 -1.660736,-0.998132 -3.121448,-1.489663 -5.71806,-1.924133 -0.788889,-0.131998 -1.562509,-0.323974 -1.719156,-0.426613 -0.79457,-0.520623 -0.829001,-1.344567 -0.08354,-1.999092 0.43033,-0.377836 0.454958,-0.383619 1.294434,-0.304 2.995655,0.284119 5.859728,1.324168 8.530486,3.097729 1.476603,0.980563 3.806983,3.29604 4.740595,4.71028 1.297432,1.965358 2.310103,4.364824 2.797873,6.629404 0.303903,1.410938 0.369626,4.28081 0.131361,5.736125 -0.391151,2.389141 -0.668804,3.341717 -1.099593,3.772506 -0.539514,0.539514 -1.240498,0.555782 -1.755539,0.04074 z"
   id="path1531" /><path
   style="fill:#ffffff;stroke:#000000;stroke-width:0.120761"
   d="m 75.103198,57.546152 c -0.339668,-0.137411 -0.895855,-0.814863 -0.895855,-1.091178 0,-0.12296 0.160829,-0.920338 0.357398,-1.771952 0.507166,-2.197245 0.650296,-3.968092 0.573801,-7.099207 -0.05461,-2.235221 -0.115126,-2.897595 -0.378298,-4.140474 -0.918954,-4.33992 -3.010019,-8.723654 -5.637884,-11.819325 -4.097713,-4.827179 -9.295806,-7.853852 -15.62995,-9.100788 -1.060216,-0.208714 -2.024603,-0.40734 -2.143081,-0.44139 -0.731935,-0.210358 -0.969613,-1.486352 -0.378845,-2.033857 0.44949,-0.416574 0.836057,-0.45997 2.177682,-0.244471 6.199138,0.995739 11.8119,3.856891 16.183126,8.249481 3.773243,3.791688 6.537109,8.760573 7.771524,13.971672 0.620783,2.620642 0.664972,3.058706 0.663885,6.581449 -0.0011,3.486626 -0.05785,4.078027 -0.620219,6.460688 -0.394641,1.672022 -0.654011,2.199832 -1.191347,2.424345 -0.464094,0.193911 -0.502455,0.196388 -0.851937,0.05501 z"
   id="path1570" /><path
   style="fill:#ffffff;stroke:#000000;stroke-width:0.120761"
   d="m 84.399532,59.305494 c -0.441736,-0.441735 -0.505069,-0.777439 -0.287211,-1.522379 0.06786,-0.232026 0.260512,-1.155485 0.428126,-2.052132 C 85.601186,50.056575 85.393133,44.347925 83.928002,38.926484 82.684759,34.326099 80.21314,29.462192 77.248754,25.782372 75.992688,24.223164 73.082686,21.318116 71.610992,20.154208 66.653698,16.23367 61.969325,14.076423 55.506104,12.737586 53.530563,12.328358 53.222173,12.232758 52.983681,11.95564 c -0.506106,-0.588074 -0.298137,-1.596707 0.397264,-1.926697 0.540956,-0.2566999 0.804394,-0.2402551 2.843821,0.177522 15.351424,3.144741 27.215985,14.651475 30.64655,29.722271 0.756272,3.322369 0.907328,4.756961 0.913696,8.677376 0.0063,3.870871 -0.08107,4.777984 -0.787842,8.181337 -0.424757,2.045344 -0.493653,2.244277 -0.911319,2.631356 -0.493075,0.456968 -1.160917,0.412092 -1.686319,-0.113311 z"
   id="path1609" /><path
   style="fill:#ffffff;stroke:#000000;stroke-width:0.120761"
   d="M 49.572196,88.619791 C 47.007386,88.389114 43.411389,87.244414 40.575537,85.75592 36.964545,83.860568 33.929677,81.535881 30.243271,77.841477 25.30923,72.896732 21.566202,67.64783 18.177919,60.922061 c -1.691658,-3.357953 -2.625706,-5.553241 -3.57029,-8.391232 -3.066125,-9.212142 -3.09838,-16.802306 -0.09634,-22.671248 1.606496,-3.140677 3.264262,-4.723455 8.131313,-7.763498 4.989528,-3.116544 7.637306,-4.645803 8.044298,-4.646092 0.382713,-2.71e-4 1.367184,1.450612 5.121181,7.547438 2.50698,4.071561 3.82356,6.326841 3.921676,6.717767 0.138456,0.551652 -0.582353,1.100269 -5.373384,4.089757 -5.72774,3.573969 -6.62335,4.275666 -7.32199,5.736668 -0.531082,1.110606 -0.68156,1.99592 -0.626037,3.683196 l 0.0457,1.388746 0.794718,1.388746 c 1.78135,3.112855 9.998314,16.467121 12.035235,19.559743 1.641167,2.491756 2.292005,3.188925 3.535242,3.786897 1.243811,0.598249 1.908773,0.715054 3.792498,0.666177 l 1.612999,-0.04185 1.066204,-0.557499 c 0.58641,-0.306624 2.941009,-1.686225 5.23244,-3.065781 4.345586,-2.616259 5.468013,-3.225483 5.746025,-3.118801 0.392632,0.150667 2.219065,2.925016 6.124528,9.303142 2.517876,4.112018 2.935413,4.910952 2.787042,5.332843 -0.13696,0.389442 -0.704745,0.788449 -4.392951,3.087114 -5.785824,3.605998 -7.497148,4.538878 -9.1778,5.003018 -1.812811,0.500638 -4.526744,0.798405 -6.038026,0.662481 z m 4.725757,-2.740242 c 0.639826,-0.164809 1.543801,-0.459515 2.008831,-0.654899 0.958341,-0.402653 6.008237,-3.394213 8.256961,-4.891427 1.864098,-1.241127 1.850378,-1.191478 0.818924,-2.9635 -1.254709,-2.155569 -2.971455,-4.924442 -4.381489,-7.06673 -1.315214,-1.99823 -1.343996,-2.031327 -1.703927,-1.959358 -0.201364,0.04026 -2.023554,1.070168 -4.049312,2.288678 -4.046739,2.434147 -5.21888,3.061092 -6.57273,3.515564 -2.872132,0.964143 -6.492152,0.08577 -8.983041,-2.179679 -0.946542,-0.860873 -1.511305,-1.716559 -7.169945,-10.863372 -7.852604,-12.693206 -8.21041,-13.323891 -8.42686,-14.853544 -0.170568,-1.205398 -0.148385,-2.644491 0.0556,-3.607317 0.377856,-1.783479 1.793824,-4.017121 3.22488,-5.087142 0.444363,-0.332256 2.101666,-1.41683 3.682896,-2.410164 4.01529,-2.52242 5.560656,-3.553244 5.641087,-3.762842 0.101327,-0.264055 -0.325113,-1.040925 -2.743316,-4.997642 -2.648955,-4.334278 -3.353027,-5.428774 -3.675702,-5.713957 -0.240871,-0.212885 -0.265679,-0.210491 -0.841298,0.0812 -1.094133,0.55444 -6.717009,3.968935 -8.547945,5.190746 -0.935004,0.623942 -2.57756,2.218227 -3.316984,3.219506 -1.135805,1.53803 -2.050573,3.761046 -2.546805,6.189094 -0.233333,1.14169 -0.24907,1.537378 -0.202914,5.102015 0.05428,4.19197 0.08744,4.469175 0.933594,7.805207 1.50101,5.917832 4.442362,12.392499 8.303929,18.279067 1.422693,2.168752 3.242145,4.653904 4.597439,6.279547 1.201517,1.441192 5.327586,5.542677 6.843765,6.802987 3.951258,3.284447 9.101994,5.850119 12.860996,6.406285 0.498137,0.0737 1.041559,0.157734 1.207605,0.186735 0.166046,0.029 1.035522,0.0329 1.932168,0.0087 1.231981,-0.0333 1.914476,-0.117273 2.793589,-0.343719 z"
   id="path1663" /><path
   style="fill:#ffffff;stroke:#000000;stroke-width:0.120761"
   d="M 49.149534,88.446832 C 46.015946,88.036 41.859504,86.472541 38.658122,84.500453 34.272258,81.798711 29.22966,77.092549 25.235398,71.973274 c -1.35543,-1.737197 -3.784594,-5.378057 -4.94641,-7.413739 -3.527393,-6.180541 -5.892986,-12.075109 -7.056641,-17.58369 -1.631549,-7.723524 -0.764915,-14.172877 2.550452,-18.980063 0.78804,-1.142635 2.51655,-2.794591 4.056304,-3.876652 2.08896,-1.468016 8.408332,-5.357921 10.052972,-6.188133 l 0.747462,-0.377317 0.306708,0.280199 c 0.736394,0.672748 8.103863,12.493002 8.599773,13.797346 0.207019,0.544499 -0.14876,0.813248 -5.938341,4.485712 -5.180369,3.286027 -5.978662,3.930874 -6.685841,5.400691 -0.508672,1.057239 -0.693753,2.187447 -0.633537,3.868729 l 0.04828,1.347967 1.397003,2.35483 c 1.747711,2.945994 5.275944,8.714967 8.313984,13.594102 4.45805,7.159688 5.093671,7.984979 6.762043,8.779847 1.141804,0.543992 1.956925,0.691311 3.825049,0.691311 H 48.1209 l 1.118121,-0.584421 c 0.614966,-0.321432 2.947642,-1.67171 5.183724,-3.000618 5.028489,-2.98844 5.58057,-3.281142 5.865298,-3.109654 0.607324,0.365784 8.000429,12.165474 8.64741,13.80161 l 0.207786,0.525469 -0.408675,0.380235 c -0.84304,0.784372 -8.927118,5.766058 -11.01103,6.785374 -0.730602,0.357363 -1.731926,0.759789 -2.225166,0.894279 -1.870263,0.509957 -4.872264,0.793731 -6.348832,0.600144 z m 4.450017,-2.300562 c 1.220837,-0.206341 2.871532,-0.81455 4.123981,-1.519509 2.029985,-1.142606 5.356736,-3.163653 6.858386,-4.166566 1.545449,-1.032164 1.760937,-1.306668 1.535462,-1.955973 -0.419998,-1.209469 -6.085807,-10.136063 -6.521176,-10.274244 -0.302408,-0.09598 -1.169251,0.361577 -5.012446,2.645788 -3.25175,1.932684 -5.365755,3.011173 -6.460688,3.296011 -1.218549,0.316996 -3.056897,0.260772 -4.384509,-0.134097 C 41.244623,73.295913 39.705637,72.130405 38.142399,69.799584 36.86357,67.892821 28.011514,53.5962 26.154904,50.43903 c -1.715394,-2.917031 -2.062812,-3.918521 -2.06017,-5.938776 0.0022,-1.710622 0.509944,-3.274017 1.570297,-4.835456 1.063301,-1.565779 1.403295,-1.828883 6.69879,-5.183844 3.836272,-2.43047 4.407759,-2.851978 4.407759,-3.250997 0,-0.387685 -0.932282,-2.045972 -3.421747,-6.086393 -2.258661,-3.665826 -2.921681,-4.644351 -3.187254,-4.703939 -0.301584,-0.06767 -1.320937,0.459193 -3.897165,2.014284 -5.15604,3.112346 -5.652813,3.44951 -7.039229,4.77759 -1.960889,1.87838 -2.887617,3.333391 -3.691921,5.796505 -0.803216,2.459783 -0.802852,2.4566 -0.786915,6.88335 0.01614,4.48389 0.071,5.042664 0.772359,7.866424 1.903523,7.663883 5.748688,15.469289 11.224245,22.784402 1.785489,2.385338 2.899329,3.629795 5.716176,6.386505 3.159997,3.092533 5.178689,4.650068 8.236168,6.354673 3.02698,1.687601 5.678087,2.584867 8.936279,3.024483 0.546943,0.0738 3.165076,-0.04604 3.966975,-0.181571 z"
   id="path1702" /><path
   style="fill:#ffffff;stroke:#000000;stroke-width:0.120761"
   d="M 63.691889,54.653427 C 63.274513,54.236051 63.269906,54.161469 63.570936,52.695073 64.449403,48.415848 64.117638,45.083665 62.487952,41.817749 61.696145,40.230956 60.9498,39.211351 59.53609,37.785117 56.997545,35.224086 54.966886,34.188974 51.014323,33.441218 49.396746,33.1352 49.240904,33.081932 48.864935,32.706548 c -0.500732,-0.499955 -0.454849,-0.874815 0.180238,-1.472528 0.424675,-0.399684 0.441583,-0.404105 1.233553,-0.322569 2.623365,0.270086 5.661646,1.336275 7.914279,2.777267 1.752637,1.121148 4.045903,3.330141 5.146316,4.957199 1.28346,1.89771 2.581896,5.041258 2.916921,7.061942 0.194685,1.174239 0.19529,4.678003 9.66e-4,5.615365 -0.51079,2.463932 -0.755166,3.145435 -1.25292,3.494075 -0.423725,0.296788 -0.912811,0.23572 -1.312402,-0.163872 z"
   id="path1741" /><path
   style="fill:#ffffff;stroke:#000000;stroke-width:0.120761"
   d="m 63.970503,54.698326 c -0.520318,-0.364446 -0.534073,-0.535839 -0.195372,-2.434259 0.245494,-1.375989 0.321987,-2.216007 0.333097,-3.657955 0.01601,-2.078116 -0.127399,-3.10442 -0.664226,-4.753474 -0.747,-2.29468 -1.83757,-4.086683 -3.599396,-5.914458 -2.554195,-2.649803 -4.38882,-3.639276 -8.398923,-4.529815 -1.992196,-0.442415 -2.199621,-0.513267 -2.505781,-0.855919 -0.183584,-0.205467 -0.33379,-0.433454 -0.33379,-0.506639 0,-0.07318 0.217252,-0.350314 0.482782,-0.615844 0.480628,-0.480628 0.485881,-0.482409 1.177415,-0.399133 2.869313,0.345526 6.046655,1.535234 8.355184,3.128471 1.193922,0.823989 3.340801,2.894942 4.244914,4.094792 1.253848,1.663982 2.741044,4.998827 3.182612,7.136598 0.297017,1.437945 0.260377,5.059779 -0.06645,6.568633 -0.336069,1.551526 -0.657884,2.383585 -1.03734,2.682066 -0.372472,0.292985 -0.617302,0.307286 -0.974727,0.05694 z"
   id="path1780" /><path
   style="fill:#ffffff;stroke:#000000;stroke-width:0.120761"
   d="m 74.881506,57.172672 c -0.231598,-0.203345 -0.451233,-0.4647 -0.488078,-0.580789 -0.03684,-0.116088 0.09314,-0.968632 0.288863,-1.89454 0.195719,-0.92591 0.42044,-2.389921 0.499381,-3.253359 0.176454,-1.930042 0.06976,-5.839864 -0.203018,-7.439545 -0.556533,-3.263756 -2.09862,-7.130362 -4.036228,-10.12039 -3.299205,-5.091176 -8.680679,-9.054751 -14.668021,-10.803321 -0.838845,-0.244981 -4.849923,-1.162692 -5.081822,-1.162692 -0.113155,0 -0.412782,-0.746492 -0.412782,-1.028407 0,-0.474462 0.21435,-0.783972 0.676731,-0.977167 0.364008,-0.152093 0.561998,-0.150338 1.590356,0.01409 12.072027,1.930301 21.254755,10.657521 24.140944,22.94343 0.339788,1.44641 0.340426,1.457162 0.340426,5.736125 v 4.286999 l -0.344682,1.448056 c -0.48799,2.050118 -0.747422,2.688081 -1.207107,2.968379 -0.505759,0.308394 -0.601456,0.296431 -1.094963,-0.136874 z"
   id="path1819" /><path
   style="fill:#ffffff;stroke:#000000;stroke-width:0.120761"
   d="m 74.983517,57.035449 c -0.419676,-0.36848 -0.437035,-0.414143 -0.378712,-0.996274 0.03362,-0.335552 0.212051,-1.425227 0.396518,-2.421501 0.311013,-1.679718 0.335273,-2.035281 0.333696,-4.890802 -0.0019,-3.449211 -0.158283,-4.882699 -0.770486,-7.062956 -0.676119,-2.40787 -1.975017,-5.375519 -3.258625,-7.445123 -2.390577,-3.854404 -6.110081,-7.228328 -10.321842,-9.362839 -2.577847,-1.306447 -3.882842,-1.752261 -7.547533,-2.578396 -1.479787,-0.33359 -2.160133,-0.540339 -2.269505,-0.689675 -0.44767,-0.611251 -0.241936,-1.327653 0.445751,-1.552181 0.507991,-0.165857 1.961133,0.04834 4.195889,0.618477 6.906082,1.761906 12.838334,5.967793 16.771523,11.890783 1.715246,2.58299 2.83472,4.91712 3.787133,7.896257 0.880975,2.755681 0.949332,3.275822 1.041289,7.923372 l 0.08243,4.166238 -0.363893,1.509507 c -0.490076,2.032945 -0.80419,2.837165 -1.225248,3.136986 -0.188705,0.134369 -0.373578,0.244308 -0.410826,0.244308 -0.03725,0 -0.265653,-0.173781 -0.507563,-0.386181 z"
   id="path1858" /><path
   style="fill:#ffffff;stroke:#000000;stroke-width:0.120761"
   d="m 84.5072,59.171641 c -0.486143,-0.486142 -0.486233,-0.366099 0.0021,-2.716095 0.480382,-2.311984 0.693512,-4.182299 0.770627,-6.762589 C 85.509421,42.012098 83.464283,34.75547 79.276781,28.392594 77.751085,26.07431 76.956044,25.121963 74.522683,22.697862 69.101133,17.29694 63.75089,14.434857 55.791363,12.677646 53.614154,12.196987 53.156476,12.032672 52.957071,11.66008 c -0.329609,-0.61588 0.149682,-1.503765 0.886351,-1.641965 0.945298,-0.1773389 6.070143,1.133894 9.060394,2.318175 7.526587,2.980884 13.860677,8.068925 18.242343,14.653688 3.091726,4.646244 5.063687,9.644447 6.122271,15.517727 0.264255,1.466159 0.282952,1.873091 0.282952,6.158787 0,4.269795 -0.01928,4.693257 -0.277258,6.089608 -0.543479,2.941675 -0.871936,4.135204 -1.239022,4.502289 -0.483692,0.483692 -0.98598,0.455175 -1.527902,-0.08675 z"
   id="path1897" /><path
   style="fill:#ffffff;stroke:#000000;stroke-width:0.120761"
   d="m 84.789412,59.223673 c -0.572837,-0.450594 -0.586102,-0.575003 -0.246205,-2.309245 0.507452,-2.589159 0.642592,-3.639459 0.793814,-6.169533 0.350974,-5.87203 -0.683242,-11.728488 -2.997724,-16.97524 -1.260021,-2.856371 -3.055523,-5.838481 -4.870837,-8.089867 -1.178279,-1.461325 -4.486334,-4.710974 -6.159369,-6.050623 -4.139303,-3.314462 -8.588164,-5.409485 -14.491263,-6.82411 -2.857512,-0.684778 -3.467672,-0.880606 -3.677591,-1.180307 -0.10271,-0.14664 -0.186746,-0.355883 -0.186746,-0.464984 0,-0.284932 0.463187,-0.833168 0.817836,-0.968005 0.811295,-0.3084542 6.425206,1.159164 9.788704,2.559014 1.629509,0.678183 4.56543,2.208739 5.998032,3.126897 8.537808,5.4719 14.414526,13.65856 16.905612,23.550642 0.868199,3.447609 0.911028,3.882022 0.911705,9.247341 6.04e-4,5.194693 -0.01316,5.352103 -0.751812,8.564836 -0.46555,2.024892 -1.019575,2.623933 -1.834156,1.983184 z"
   id="path1936" /><path
   style="fill:#ffffff;stroke:#000000;stroke-width:0.120761"
   d="M 48.968393,85.788874 C 45.212192,85.302266 40.299159,82.936423 36.047017,79.566658 34.455686,78.30555 29.619477,73.399419 28.169329,71.575076 22.173787,64.032445 17.609767,54.947291 15.830596,47.013551 15.284305,44.577514 15.133278,43.321878 15.07076,40.696297 c -0.106548,-4.474731 0.500248,-7.389069 2.132448,-10.241788 0.665242,-1.162692 2.15882,-2.885161 3.143792,-3.625578 1.078937,-0.811052 8.993562,-5.706552 9.54123,-5.901619 0.13332,-0.04749 1.018717,1.294225 3.35375,5.082193 l 3.172608,5.146711 -0.355257,0.301901 c -0.19539,0.166046 -2.246525,1.47026 -4.558076,2.898253 -5.160372,3.187893 -5.871221,3.798598 -6.970072,5.988133 -0.724339,1.443293 -0.970856,2.537282 -0.963659,4.276511 0.0071,1.711309 0.251417,2.847801 0.879937,4.092891 0.663107,1.313609 13.658091,22.273341 14.210338,22.919991 2.46672,2.888381 6.945306,4.021162 10.830482,2.739382 0.948649,-0.312975 1.256156,-0.489055 6.896871,-3.949205 1.588533,-0.974442 2.931846,-1.771714 2.985144,-1.771714 0.148321,0 1.030909,1.360535 3.909109,6.026013 l 2.6373,4.274986 -0.26653,0.215823 c -0.347008,0.280989 -5.801013,3.654626 -7.744173,4.790245 -2.862192,1.672719 -5.685884,2.250703 -8.937609,1.829448 z"
   id="path1998" /></svg>
