<?xml version="1.0" encoding="UTF-8" standalone="no"?>
<svg
   width="100"
   height="100"
   viewBox="0 0 100 100"
   fill="none"
   version="1.1"
   id="svg4"
   sodipodi:docname="github.svg"
   inkscape:version="1.1.2 (b8e25be833, 2022-02-05)"
   xmlns:inkscape="http://www.inkscape.org/namespaces/inkscape"
   xmlns:sodipodi="http://sodipodi.sourceforge.net/DTD/sodipodi-0.dtd"
   xmlns="http://www.w3.org/2000/svg"
   xmlns:svg="http://www.w3.org/2000/svg">
  <defs
     id="defs8" />
  <sodipodi:namedview
     id="namedview6"
     pagecolor="#ffffff"
     bordercolor="#666666"
     borderopacity="1.0"
     inkscape:pageshadow="2"
     inkscape:pageopacity="0.0"
     inkscape:pagecheckerboard="0"
     showgrid="false"
     inkscape:zoom="8.31"
     inkscape:cx="49.939832"
     inkscape:cy="59.566787"
     inkscape:window-width="1920"
     inkscape:window-height="1017"
     inkscape:window-x="-8"
     inkscape:window-y="-8"
     inkscape:window-maximized="1"
     inkscape:current-layer="svg4" />
  <path
     fill-rule="evenodd"
     clip-rule="evenodd"
     d="M52.0777 99.9576C78.7284 98.8683 100 76.9182 100 50C100 22.3858 77.6142 0 50 0C22.3858 0 0 22.3858 0 50C0 77.6142 22.3858 100 50 100C50.1229 100 50.2458 99.9996 50.3685 99.9987C50.4801 99.9996 50.5917 100 50.7035 100C51.1353 100 51.5974 99.9847 52.0777 99.9576ZM52.0777 99.9576C55.9055 99.7415 60.8882 98.772 60.8882 98.772L60.8351 95.7815C60.8351 95.7815 60.8857 89.9431 60.8857 84.3937C60.8857 80.5214 59.5581 77.9875 58.067 76.7064C67.3152 75.6786 77.0209 72.1691 77.0209 56.2216C77.0209 51.69 75.4143 47.9838 72.7534 45.082C73.1801 44.0318 74.6048 39.8108 72.3399 34.0961C72.3399 34.0961 68.8611 32.9803 60.9355 38.352C57.6195 37.4313 54.0677 36.9705 50.5432 36.9547C47.013 36.9705 43.4612 37.4313 40.1501 38.352C32.2196 32.9803 28.7341 34.0961 28.7341 34.0961C26.4759 39.8116 27.9006 44.0326 28.3273 45.082C25.6722 47.9838 24.0548 51.6892 24.0548 56.2216C24.0548 72.1292 33.7456 75.691 42.9639 76.7388C41.7783 77.7766 40.7056 79.6057 40.3286 82.2882C37.9632 83.3509 31.9506 85.1825 28.2476 78.8393C28.2476 78.8393 26.0549 74.8549 21.8895 74.561C21.8895 74.561 17.8354 74.5087 21.6039 77.0842C21.6039 77.0842 24.3255 78.3611 26.2127 83.1566C26.2127 83.1566 28.6495 91.23 40.1966 88.7218C40.2075 90.6058 40.2232 92.2371 40.2353 93.492C40.2455 94.5448 40.2531 95.3327 40.2531 95.7823L40.2631 98.6708C43.4949 99.5107 46.8795 99.971 50.3685 99.9987C50.9406 99.9945 51.5104 99.9808 52.0777 99.9576Z"
     fill="black"
     id="path2" />
  <path
     style="fill:#ffffff;stroke:#000000;stroke-width:0.120337"
     d="M 40.004335,98.923679 C 23.905336,95.581834 10.526667,84.657788 4.0813788,69.591611 0.22877656,60.585964 -0.86697556,50.635647 0.91676928,40.854392 3.2375863,28.128076 10.731503,16.520854 21.451184,9.0489288 27.329093,4.9518579 34.09075,2.1407763 41.155235,0.8571952 44.36246,0.2744588 46.127537,0.12940272 50,0.13032221 52.684351,0.13096 54.072987,0.18567416 55.415162,0.34368874 63.336646,1.2762863 70.605285,3.871927 77.135981,8.1002218 88.606132,15.526564 96.635436,27.509946 99.082472,40.854392 99.738467,44.431742 99.819495,45.4372 99.819495,50 c 0,4.5628 -0.08103,5.568258 -0.737023,9.145608 -2.795775,15.246231 -12.776773,28.494462 -26.735373,35.487077 -3.460112,1.733356 -7.80782,3.310735 -11.120367,4.034547 l -0.325615,0.07115 -0.04235,-8.45463 C 60.81701,81.949045 60.812572,81.815467 60.545907,80.866426 60.185298,79.583045 59.45199,78.117479 58.79461,77.366337 L 58.259,76.754336 59.665,76.554209 c 4.073111,-0.579757 7.372972,-1.702728 9.979726,-3.396185 1.391998,-0.904302 3.396955,-2.912391 4.308085,-4.314815 2.038564,-3.137789 3.059486,-7.173544 3.077246,-12.164509 0.009,-2.531533 -0.187215,-3.946177 -0.807146,-5.819043 -0.554623,-1.675566 -1.359064,-3.199535 -2.454685,-4.650271 l -0.908806,-1.203369 0.217541,-0.661853 c 0.394339,-1.199739 0.597453,-2.945499 0.532035,-4.572804 -0.06827,-1.698193 -0.284985,-2.896761 -0.832264,-4.602888 l -0.376359,-1.173285 -1.031715,0.0021 c -1.805948,0.0037 -3.511398,0.492201 -6.085866,1.743358 -0.860409,0.418148 -2.187124,1.151025 -2.948255,1.628616 l -1.383875,0.868349 -0.661853,-0.141728 c -4.443465,-0.95151 -6.045601,-1.138672 -9.747293,-1.138672 -3.701692,0 -5.303828,0.187162 -9.747292,1.138672 L 40.132371,38.23761 38.748496,37.369261 C 37.987365,36.891663 36.66065,36.158786 35.800241,35.740638 33.221783,34.487543 31.520673,34.000927 29.705829,33.99728 l -1.040261,-0.0021 -0.375314,1.173285 c -0.533438,1.667601 -0.726416,2.753972 -0.806952,4.542719 -0.07617,1.691719 0.116111,3.395751 0.522769,4.632973 l 0.217542,0.661853 -0.908807,1.203369 c -1.559694,2.065224 -2.62447,4.502513 -3.075432,7.039711 -0.24089,1.355299 -0.268044,4.674047 -0.05415,6.618532 0.389112,3.537403 1.391194,6.583683 2.960228,8.99894 0.83188,1.280537 2.880594,3.358953 4.143991,4.204069 2.54257,1.700784 5.990401,2.913157 9.865795,3.469144 0.827316,0.118691 1.524422,0.23135 1.549125,0.250352 0.0247,0.019 -0.18101,0.29121 -0.457136,0.604906 -0.276127,0.313696 -0.716329,1.006482 -0.978228,1.539523 -0.435483,0.886341 -0.95612,2.566579 -0.95612,3.085667 0,0.237078 -0.759863,0.562981 -2.286402,0.980632 -0.682426,0.186707 -1.269361,0.247534 -2.406739,0.249422 -1.31347,0.0022 -1.629559,-0.03867 -2.492721,-0.322124 -1.141913,-0.374998 -2.505732,-1.237844 -3.29659,-2.085651 C 29.533996,80.524736 28.842865,79.6021 28.294578,78.792206 27.702886,77.918197 26.995809,77.04559 26.554982,76.645361 25.06659,75.29404 23.353811,74.548572 21.738226,74.548923 c -1.125414,2.41e-4 -1.686532,0.259945 -1.739304,0.804993 -0.04601,0.475189 0.430982,0.985885 1.846195,1.976656 1.610491,1.127481 2.847057,2.678016 3.797735,4.761991 1.105833,2.42409 1.471929,3.058616 2.248857,3.89777 1.394467,1.506153 2.818453,2.347335 4.900108,2.894609 0.964607,0.253598 1.333043,0.283763 3.369435,0.275864 1.553202,-0.006 2.566175,-0.0676 3.158844,-0.192026 l 0.872443,-0.183159 v 4.966511 4.966512 l 1.233454,0.298053 c 1.810473,0.437484 0.822607,0.372848 -1.421658,-0.09302 z"
     id="path1205" />
</svg>
