<?xml version="1.0" encoding="UTF-8" standalone="no"?>
<svg
   width="100"
   height="100"
   viewBox="0 0 100 100"
   fill="none"
   version="1.1"
   id="svg4"
   sodipodi:docname="instagram.svg"
   inkscape:version="1.1.2 (b8e25be833, 2022-02-05)"
   xmlns:inkscape="http://www.inkscape.org/namespaces/inkscape"
   xmlns:sodipodi="http://sodipodi.sourceforge.net/DTD/sodipodi-0.dtd"
   xmlns="http://www.w3.org/2000/svg"
   xmlns:svg="http://www.w3.org/2000/svg">
  <defs
     id="defs8" />
  <sodipodi:namedview
     id="namedview6"
     pagecolor="#ffffff"
     bordercolor="#666666"
     borderopacity="1.0"
     inkscape:pageshadow="2"
     inkscape:pageopacity="0.0"
     inkscape:pagecheckerboard="0"
     showgrid="false"
     inkscape:zoom="8.31"
     inkscape:cx="49.939832"
     inkscape:cy="49.939832"
     inkscape:window-width="1920"
     inkscape:window-height="1017"
     inkscape:window-x="-8"
     inkscape:window-y="-8"
     inkscape:window-maximized="1"
     inkscape:current-layer="svg4" />
  <path
     fill-rule="evenodd"
     clip-rule="evenodd"
     d="M50 100C77.6142 100 100 77.6142 100 50C100 22.3858 77.6142 0 50 0C22.3858 0 0 22.3858 0 50C0 77.6142 22.3858 100 50 100ZM25 39.3918C25 31.4558 31.4566 25 39.3918 25H60.6082C68.5442 25 75 31.4566 75 39.3918V60.8028C75 68.738 68.5442 75.1946 60.6082 75.1946H39.3918C31.4558 75.1946 25 68.738 25 60.8028V39.3918ZM60.6082 70.4317C65.9174 70.4317 70.2371 66.1121 70.2371 60.8028V39.3918C70.2371 34.0826 65.9174 29.7629 60.6082 29.7629H39.3918C34.0826 29.7629 29.7629 34.0826 29.7629 39.3918V60.8028C29.7629 66.1121 34.0826 70.4317 39.3918 70.4317H60.6082ZM36.9883 50.0054C36.9883 42.8847 42.8438 37.0922 50.0397 37.0922C57.2356 37.0922 63.0911 42.8847 63.0911 50.0054C63.0911 57.1252 57.2356 62.9177 50.0397 62.9177C42.843 62.9177 36.9883 57.1252 36.9883 50.0054ZM41.7422 50.0054C41.7422 54.5033 45.4641 58.1638 50.0397 58.1638C54.6153 58.1638 58.3372 54.5041 58.3372 50.0054C58.3372 45.5066 54.6145 41.8469 50.0397 41.8469C45.4641 41.8469 41.7422 45.5066 41.7422 50.0054ZM63.3248 39.6355C65.0208 39.6355 66.3956 38.2606 66.3956 36.5646C66.3956 34.8687 65.0208 33.4938 63.3248 33.4938C61.6288 33.4938 60.2539 34.8687 60.2539 36.5646C60.2539 38.2606 61.6288 39.6355 63.3248 39.6355Z"
     fill="black"
     id="path2" />
  <path
     style="fill:#ffffff;stroke:#000000;stroke-width:0.120337"
     d="M 46.269555,99.805237 C 27.713677,98.393987 11.407081,86.715799 4.0813788,69.591611 0.22877656,60.585964 -0.86697556,50.635647 0.91676928,40.854392 3.2375863,28.128076 10.731503,16.520854 21.451184,9.0489288 27.329093,4.9518579 34.09075,2.1407763 41.155235,0.8571952 44.36246,0.2744588 46.127537,0.12940272 50,0.13032221 c 2.684351,6.3779e-4 4.072987,0.055352 5.415162,0.21336653 7.921484,0.93259756 15.190123,3.52823826 21.720819,7.75653306 6.67852,4.3240032 12.267345,10.2482302 16.299277,17.2774422 2.640417,4.603266 4.686386,10.209247 5.648415,15.476728 0.655761,3.590551 0.735822,4.58563 0.735822,9.145608 0,4.559978 -0.08006,5.555057 -0.735822,9.145608 -2.544926,13.934456 -11.21065,26.375745 -23.47256,33.699305 -8.833959,5.276181 -19.188657,7.732497 -29.341558,6.960324 z M 62.294298,75.142119 c 2.015837,-0.22478 4.153931,-0.961869 5.891011,-2.030878 3.453659,-2.1254 5.939164,-5.799083 6.680573,-9.874177 0.13174,-0.7241 0.164202,-3.329139 0.164202,-13.176896 0,-11.281038 -0.01728,-12.359188 -0.213563,-13.32248 -0.620416,-3.044834 -1.87443,-5.390493 -4.04744,-7.570825 C 68.611629,27.002144 66.066446,25.680267 63.062266,25.16422 62.072978,24.994284 60.434774,24.969916 50,24.969916 c -10.434774,0 -12.072978,0.02437 -13.062266,0.194304 -6.399641,1.099306 -11.213848,6.270601 -11.918079,12.802086 -0.07892,0.731949 -0.106674,5.385581 -0.07715,12.936221 0.04086,10.451282 0.06891,11.895365 0.246493,12.692563 0.612407,2.749146 1.788206,5.03908 3.631242,7.072045 0.822963,0.907769 2.698299,2.338627 3.851242,2.938449 1.459294,0.759201 3.603852,1.40716 5.234657,1.581605 1.080048,0.115531 23.316407,0.07444 24.388161,-0.04507 z"
     id="path938" />
  <path
     style="fill:#ffffff;stroke:#000000;stroke-width:0.120337"
     d="M 37.184116,70.095894 C 33.552981,69.19619 30.797013,66.33115 30.015233,62.643291 29.878784,61.999627 29.847354,59.683247 29.845651,50.145348 c -0.0018,-10.218263 0.02216,-11.825851 0.188539,-12.635379 0.734813,-3.575385 3.471642,-6.443593 7.06329,-7.402357 0.986578,-0.26336 1.020139,-0.26405 12.842352,-0.26405 13.393015,0 12.724584,-0.0431 14.763097,0.951893 2.783031,1.358391 4.667181,3.776524 5.270179,6.763792 0.168917,0.836825 0.187452,2.366246 0.157318,12.982269 l -0.03416,12.033695 -0.386954,1.1076 c -0.45925,1.314542 -0.900652,2.126349 -1.685553,3.099995 -1.302686,1.615945 -3.222296,2.835521 -5.207879,3.308697 -0.992457,0.236508 -1.375222,0.24352 -12.876052,0.235884 -11.132591,-0.0074 -11.908057,-0.02146 -12.755716,-0.231493 z M 52.775834,62.690635 C 56.858929,61.849723 60.52633,58.861094 62.092919,55.097977 62.855023,53.267321 63.08675,52.078651 63.08675,50 c 0,-2.073989 -0.231874,-3.267675 -0.987182,-5.082006 -0.816153,-1.960487 -2.583215,-4.156954 -4.370094,-5.432043 -1.035103,-0.738635 -3.041982,-1.683946 -4.239703,-1.997051 -2.941458,-0.768948 -6.222328,-0.507017 -8.909214,0.711275 -2.888567,1.309739 -5.47145,3.961217 -6.632215,6.808353 -0.796604,1.953916 -0.927038,2.656217 -0.927038,4.991472 0,2.335255 0.130434,3.037556 0.927038,4.991472 1.693129,4.152922 5.780682,7.258986 10.366941,7.877669 1.120894,0.151207 3.278949,0.06484 4.460551,-0.178506 z m 11.905273,-23.32641 c 1.12042,-0.529679 1.738497,-1.517214 1.741067,-2.781794 0.0018,-0.908133 -0.373717,-1.757382 -1.044601,-2.362131 -0.604821,-0.545198 -1.213068,-0.758759 -2.140509,-0.751555 -2.753199,0.02139 -4.058142,3.36916 -2.083131,5.344172 0.875771,0.875771 2.352576,1.1066 3.527174,0.551308 z"
     id="path977" />
  <path
     style="fill:#ffffff;stroke:#000000;stroke-width:0.120337"
     d="m 48.075431,57.875112 c -0.39666,-0.09969 -1.180739,-0.40369 -1.742398,-0.675548 -1.389026,-0.672327 -2.989574,-2.250577 -3.64017,-3.589456 -0.599487,-1.233702 -0.847056,-2.260823 -0.855647,-3.54994 -0.01563,-2.34542 0.856714,-4.297032 2.671927,-5.977642 3.195799,-2.95882 8.245935,-2.842338 11.327199,0.261262 1.588195,1.599709 2.286728,3.155668 2.377231,5.295201 0.06585,1.556765 -0.142627,2.550053 -0.825542,3.933267 -0.911961,1.847141 -2.63028,3.338517 -4.66628,4.049993 -0.889928,0.310983 -1.241875,0.367477 -2.481077,0.398255 -0.994689,0.0247 -1.668465,-0.02054 -2.165243,-0.145392 z"
     id="path1016" />
</svg>
