<?xml version="1.0" encoding="UTF-8" standalone="no"?>
<svg
   width="100"
   height="100"
   viewBox="0 0 100 100"
   fill="none"
   version="1.1"
   id="svg4"
   sodipodi:docname="twitch.svg"
   inkscape:version="1.1.2 (b8e25be833, 2022-02-05)"
   xmlns:inkscape="http://www.inkscape.org/namespaces/inkscape"
   xmlns:sodipodi="http://sodipodi.sourceforge.net/DTD/sodipodi-0.dtd"
   xmlns="http://www.w3.org/2000/svg"
   xmlns:svg="http://www.w3.org/2000/svg">
  <defs
     id="defs8" />
  <sodipodi:namedview
     id="namedview6"
     pagecolor="#ffffff"
     bordercolor="#666666"
     borderopacity="1.0"
     inkscape:pageshadow="2"
     inkscape:pageopacity="0.0"
     inkscape:pagecheckerboard="0"
     showgrid="false"
     inkscape:zoom="8.31"
     inkscape:cx="49.939832"
     inkscape:cy="49.939832"
     inkscape:window-width="1920"
     inkscape:window-height="1017"
     inkscape:window-x="-8"
     inkscape:window-y="-8"
     inkscape:window-maximized="1"
     inkscape:current-layer="svg4" />
  <path
     fill-rule="evenodd"
     clip-rule="evenodd"
     d="M50 100C77.6142 100 100 77.6142 100 50C100 22.3858 77.6142 0 50 0C22.3858 0 0 22.3858 0 50C0 77.6142 22.3858 100 50 100ZM25 33.0966L28.4128 24H75V55.8232L61.3601 69.455H51.133L44.3253 76.279H37.5012V69.455H25V33.0966ZM70.455 28.5434H32.9562L32.9546 61.4988H43.1817V68.3147L49.9976 61.4988H62.4971L70.455 53.5409V28.5434ZM49.9992 51.2782H45.4558V37.6399H49.9992V51.2782ZM62.489 51.2782H57.9456V37.6399H62.489V51.2782Z"
     fill="black"
     id="path2" />
  <path
     style="fill:#ffffff;stroke:#000000;stroke-width:0.120337"
     d="M 46.269555,99.805237 C 29.71791,98.546416 14.894776,89.144798 6.5647425,74.622336 2.7231721,67.924996 0.41586621,59.872001 0.13929785,52.196149 -0.09709477,45.635331 0.71849819,39.864168 2.7114964,33.995187 6.9243105,21.589291 15.762809,11.396932 27.436823,5.4824937 29.983135,4.192449 31.547534,3.5394134 34.23586,2.6443366 37.743752,1.476386 40.78368,0.80119321 44.584838,0.34574397 47.100517,0.0443189 52.863026,0.04322536 55.415162,0.34368874 63.336646,1.2762863 70.605285,3.871927 77.135981,8.1002218 88.606132,15.526564 96.635436,27.509946 99.082472,40.854392 99.738467,44.431742 99.819495,45.4372 99.819495,50 c 0,4.559978 -0.08006,5.555057 -0.735822,9.145608 -2.544926,13.934456 -11.21065,26.375745 -23.47256,33.699305 -8.833959,5.276181 -19.188657,7.732497 -29.341558,6.960324 z m 1.504212,-26.881049 3.428019,-3.429603 h 5.115508 5.115507 l 6.828726,-6.829514 6.828726,-6.829514 V 39.860916 23.886276 l -23.36404,0.03039 -23.364041,0.03039 -1.720803,4.572804 -1.720801,4.572803 -0.0054,18.200963 -0.0054,18.200963 h 6.257521 6.257521 v 3.429603 3.429603 h 3.460479 3.460479 z"
     id="path899" />
  <path
     style="fill:#ffffff;stroke:#000000;stroke-width:0.120337"
     d="M 43.200963,64.830736 V 61.43201 h -5.11432 -5.11432 V 45.006017 28.580024 h 18.712394 18.712395 v 12.484284 12.484284 l -3.940351,3.941709 -3.940352,3.941709 h -6.257426 -6.257427 l -3.400296,3.398726 -3.400297,3.398727 z m 6.859205,-20.366235 v -6.859206 h -2.34657 -2.34657 v 6.859206 6.859205 h 2.34657 2.34657 z m 12.515043,0 V 37.605295 H 60.22864 57.88207 v 6.859206 6.859205 h 2.34657 2.346571 z"
     id="path938" />
</svg>
