<?xml version="1.0" encoding="UTF-8" standalone="no"?>
<svg
   width="100"
   height="100"
   viewBox="0 0 100 100"
   fill="none"
   version="1.1"
   id="svg4"
   sodipodi:docname="facebook.svg"
   inkscape:version="1.1.2 (b8e25be833, 2022-02-05)"
   xmlns:inkscape="http://www.inkscape.org/namespaces/inkscape"
   xmlns:sodipodi="http://sodipodi.sourceforge.net/DTD/sodipodi-0.dtd"
   xmlns="http://www.w3.org/2000/svg"
   xmlns:svg="http://www.w3.org/2000/svg">
  <defs
     id="defs8" />
  <sodipodi:namedview
     id="namedview6"
     pagecolor="#ffffff"
     bordercolor="#666666"
     borderopacity="1.0"
     inkscape:pageshadow="2"
     inkscape:pageopacity="0.0"
     inkscape:pagecheckerboard="0"
     showgrid="false"
     inkscape:zoom="8.31"
     inkscape:cx="49.939832"
     inkscape:cy="49.939832"
     inkscape:window-width="1920"
     inkscape:window-height="1017"
     inkscape:window-x="-8"
     inkscape:window-y="-8"
     inkscape:window-maximized="1"
     inkscape:current-layer="svg4" />
  <path
     fill-rule="evenodd"
     clip-rule="evenodd"
     d="M50 100C77.6142 100 100 77.6142 100 50C100 22.3858 77.6142 0 50 0C22.3858 0 0 22.3858 0 50C0 77.6142 22.3858 100 50 100ZM53.5357 23.0167C50.6527 23.0971 47.6106 23.7911 45.4617 25.8328C43.687 27.4744 42.7929 29.8636 42.592 32.2519C42.5308 33.9602 42.5395 35.6729 42.5483 37.3849C42.5548 38.6688 42.5614 39.9524 42.5384 41.2334C41.7492 41.2392 40.9575 41.2375 40.1655 41.2359C39.1093 41.2337 38.0525 41.2315 37 41.2468C37 42.2691 37.0015 43.2928 37.003 44.3174C37.006 46.3696 37.0089 48.4256 37 50.482C38.0525 50.4973 39.1093 50.4951 40.1655 50.4929C40.9575 50.4913 41.7492 50.4897 42.5384 50.4954C42.5563 54.5705 42.553 58.6454 42.5497 62.7203C42.5455 67.8139 42.5414 72.9074 42.5786 78.0008C44.7444 77.9855 46.9056 77.9877 49.0675 77.9899C50.6892 77.9916 52.3112 77.9932 53.9359 77.9874C53.9493 73.403 53.9459 68.8222 53.9426 64.2414C53.9392 59.6605 53.9359 55.0796 53.9493 50.4954C55.0417 50.4897 56.1342 50.4913 57.2266 50.4929C58.6832 50.4951 60.1398 50.4973 61.5964 50.482C62.0502 47.4123 62.4369 44.3157 62.6504 41.2066C61.2093 41.2 59.7679 41.2 58.3266 41.2C56.8853 41.2 55.444 41.2 54.0029 41.1933C54.0029 40.656 54.002 40.1187 54.0012 39.5815C53.9987 37.9701 53.9962 36.359 54.0163 34.7474C54.2431 33.5059 55.5239 32.5583 56.7654 32.6387H62.6638C62.6772 29.4224 62.6772 26.2196 62.6638 23.0033C61.9032 23.0033 61.1427 23.0025 60.3821 23.0017C58.1002 22.9992 55.818 22.9967 53.5357 23.0167Z"
     fill="black"
     id="path2" />
  <path
     style="fill:#ffffff;stroke:#000000;stroke-width:0.120337"
     d="M 46.269555,99.805237 C 29.71791,98.546416 14.894776,89.144798 6.5647425,74.622336 2.7231721,67.924996 0.41586621,59.872001 0.13929785,52.196149 -0.09709477,45.635331 0.71849819,39.864168 2.7114964,33.995187 6.9243105,21.589291 15.762809,11.396932 27.436823,5.4824937 29.983135,4.192449 31.547534,3.5394134 34.23586,2.6443366 37.743752,1.476386 40.78368,0.80119321 44.584838,0.34574397 47.100517,0.0443189 52.863026,0.04322536 55.415162,0.34368874 63.336646,1.2762863 70.605285,3.871927 77.135981,8.1002218 88.606132,15.526564 96.635436,27.509946 99.082472,40.854392 99.738467,44.431742 99.819495,45.4372 99.819495,50 c 0,4.559978 -0.08006,5.555057 -0.735822,9.145608 -2.544926,13.934456 -11.21065,26.375745 -23.47256,33.699305 -8.833959,5.276181 -19.188657,7.732497 -29.341558,6.960324 z M 54.031288,64.320096 V 50.601685 l 3.038507,-0.01407 c 1.67118,-0.0077 3.389507,-0.04835 3.818506,-0.09025 l 0.779997,-0.07619 0.206094,-1.444043 c 0.227728,-1.595623 0.647911,-5.343777 0.772318,-6.88929 l 0.07991,-0.99278 h -4.347668 -4.347669 l 0.0026,-3.158845 c 0.003,-3.591886 0.04417,-3.791012 0.942795,-4.560198 0.766191,-0.655835 1.082406,-0.704543 4.573934,-0.704543 h 3.144884 V 27.79783 22.924184 l -4.54272,1.01e-4 c -5.859024,1.2e-4 -7.430495,0.146805 -9.458098,0.882784 -1.356965,0.492553 -2.370847,1.147063 -3.46214,2.234981 -0.871712,0.869015 -1.125153,1.215944 -1.590329,2.176959 -1.024361,2.116247 -1.074905,2.477532 -1.132166,8.09266 l -0.05001,4.90373 h -2.758324 -2.758323 v 4.615829 4.615831 l 0.739674,0.07731 c 0.40682,0.04252 1.652308,0.07731 2.767749,0.07731 h 2.028076 V 64.32009 78.038502 h 5.776173 5.776174 z"
     id="path936" />
</svg>
