<?xml version="1.0" encoding="UTF-8" standalone="no"?>
<svg
   width="100"
   height="100"
   viewBox="0 0 100 100"
   fill="none"
   version="1.1"
   id="svg4"
   sodipodi:docname="twitter.svg"
   inkscape:version="1.1.2 (b8e25be833, 2022-02-05)"
   xmlns:inkscape="http://www.inkscape.org/namespaces/inkscape"
   xmlns:sodipodi="http://sodipodi.sourceforge.net/DTD/sodipodi-0.dtd"
   xmlns="http://www.w3.org/2000/svg"
   xmlns:svg="http://www.w3.org/2000/svg">
  <defs
     id="defs8" />
  <sodipodi:namedview
     id="namedview6"
     pagecolor="#ffffff"
     bordercolor="#666666"
     borderopacity="1.0"
     inkscape:pageshadow="2"
     inkscape:pageopacity="0.0"
     inkscape:pagecheckerboard="0"
     showgrid="false"
     inkscape:zoom="8.31"
     inkscape:cx="49.939832"
     inkscape:cy="49.939832"
     inkscape:window-width="1920"
     inkscape:window-height="1017"
     inkscape:window-x="-8"
     inkscape:window-y="-8"
     inkscape:window-maximized="1"
     inkscape:current-layer="svg4" />
  <path
     fill-rule="evenodd"
     clip-rule="evenodd"
     d="M50 100C77.6142 100 100 77.6142 100 50C100 22.3858 77.6142 0 50 0C22.3858 0 0 22.3858 0 50C0 77.6142 22.3858 100 50 100ZM69.0911 36.3637C71.1367 36.1367 73.1815 35.6819 75 34.773C73.6363 36.8185 72.0456 38.6363 69.7722 39.773V41.1367C69.7722 54.773 59.5452 70.227 40.6819 70.227C34.773 70.227 29.5452 68.6363 25 65.6819C25.9089 65.9089 26.5907 65.9089 27.4996 65.9089C32.2726 65.9089 36.8177 64.3181 40.227 61.5907C35.6819 61.5907 32.0456 58.6363 30.6819 54.5452C31.1367 54.7722 31.8185 54.7722 32.5004 54.7722C33.4069 54.7722 34.3141 54.5456 35.2206 54.3191L35.2278 54.3174C30.4556 53.4085 27.0464 49.3174 27.0464 44.3174V44.0903C28.4101 44.9992 30.0008 45.454 31.5915 45.454C28.8649 43.6355 27.0464 40.6811 27.0464 37.0448C27.0464 34.9992 27.5012 33.4085 28.4101 31.8177C33.6371 37.9544 41.1367 42.0448 49.546 42.4996C49.3189 41.8177 49.3189 41.1359 49.3189 40.227C49.3189 34.5452 53.8641 30 59.546 30C62.5004 30 65.227 31.1359 67.0456 33.1815C69.5452 32.7274 71.5907 31.8185 73.6363 30.6819C72.7274 33.1823 71.1367 35 69.0911 36.3637Z"
     fill="black"
     id="path2" />
  <path
     style="fill:#ffffff;stroke:#000000;stroke-width:0.120337"
     d="M 46.269555,99.805237 C 29.71791,98.546416 14.894776,89.144798 6.5647425,74.622336 2.7231721,67.924996 0.41586621,59.872001 0.13929785,52.196149 -0.09709477,45.635331 0.71849819,39.864168 2.7114964,33.995187 6.9243105,21.589291 15.762809,11.396932 27.436823,5.4824937 29.983135,4.192449 31.547534,3.5394134 34.23586,2.6443366 37.743752,1.476386 40.78368,0.80119321 44.584838,0.34574397 47.100517,0.0443189 52.863026,0.04322536 55.415162,0.34368874 63.336646,1.2762863 70.605285,3.871927 77.135981,8.1002218 c 6.67852,4.3240032 12.267345,10.2482302 16.299277,17.2774422 2.640417,4.603266 4.686386,10.209247 5.648415,15.476728 0.655761,3.590551 0.735822,4.58563 0.735822,9.145608 0,4.559978 -0.08006,5.555057 -0.735822,9.145608 -2.544926,13.934456 -11.21065,26.375745 -23.47256,33.699305 -8.833959,5.276181 -19.188657,7.732497 -29.341558,6.960324 z M 43.381468,70.151005 c 2.291802,-0.136016 5.087003,-0.717826 7.528786,-1.567087 8.072757,-2.807737 14.560261,-9.600949 17.402837,-18.222907 0.940838,-2.853703 1.348418,-5.199289 1.44553,-8.31891 l 0.06979,-2.241894 0.377479,-0.180007 c 0.705539,-0.336448 2.327987,-1.648785 3.047571,-2.465065 0.799802,-0.907278 1.866375,-2.328121 1.798548,-2.395947 -0.02421,-0.02421 -0.433488,0.116574 -0.909495,0.312864 -1.241524,0.511962 -2.408138,0.818015 -4.347086,1.140426 l -0.421179,0.07004 0.421179,-0.328685 c 0.7842,-0.611982 1.712154,-1.534319 2.265171,-2.251459 0.565708,-0.733596 1.585611,-2.5944 1.585611,-2.892932 0,-0.113273 -0.516115,0.07856 -1.594464,0.592654 -1.617175,0.770969 -2.919288,1.245887 -4.260558,1.553949 l -0.740703,0.170122 -0.462667,-0.479736 c -1.041766,-1.080203 -2.692842,-1.968945 -4.468772,-2.405454 -1.454337,-0.357463 -3.770505,-0.351971 -5.139502,0.01219 -3.684724,0.980153 -6.445009,3.741645 -7.409062,7.412303 -0.268887,1.02379 -0.38881,3.743474 -0.195717,4.438557 l 0.09642,0.347102 -0.878794,-0.0823 c -4.811688,-0.450624 -9.501096,-2.108381 -13.497062,-4.771355 -2.142614,-1.427873 -3.289463,-2.374795 -5.101997,-4.212577 -0.843506,-0.855257 -1.570329,-1.555183 -1.615162,-1.55539 -0.04483,-2.4e-4 -0.215523,0.283919 -0.379314,0.631391 -1.574751,3.340762 -1.28649,7.334411 0.742017,10.280102 0.537453,0.780459 1.116052,1.408682 2.008649,2.180921 l 0.598249,0.517582 -0.481348,-0.07319 c -1.176142,-0.178828 -2.16731,-0.479236 -3.020048,-0.915331 l -0.919573,-0.470274 0.08748,1.054173 c 0.262411,3.162312 1.732757,5.869182 4.111648,7.569442 0.799457,0.571394 2.506912,1.41116 3.140015,1.544332 0.215102,0.04525 0.391095,0.122754 0.391095,0.17224 0,0.283757 -3.031585,0.494744 -3.662443,0.254892 -0.4353,-0.1655 -0.409297,0.09469 0.119794,1.198723 0.549555,1.146727 1.281308,2.167716 2.18224,3.044799 1.656072,1.612236 3.320056,2.382444 6.095266,2.821316 l 0.583232,0.09223 -1.136537,0.750754 c -2.057611,1.359182 -4.607763,2.412038 -7.085693,2.925398 -1.791291,0.371108 -4.335025,0.541527 -5.655758,0.378912 -0.61276,-0.07545 -1.132388,-0.118894 -1.154729,-0.09655 -0.06708,0.06708 1.521028,0.976866 2.92417,1.675182 3.329561,1.65706 7.051724,2.631033 10.881914,2.847455 1.590662,0.08988 2.195706,0.08165 4.632972,-0.063 z"
     id="path938" />
</svg>
